<svg width="400" height="300" viewBox="0 0 400 300" fill="none" xmlns="http://www.w3.org/2000/svg">
  <defs>
    <linearGradient id="brainGradient" x1="0%" y1="0%" x2="100%" y2="100%">
      <stop offset="0%" style="stop-color:#3b82f6;stop-opacity:0.8" />
      <stop offset="50%" style="stop-color:#06b6d4;stop-opacity:0.6" />
      <stop offset="100%" style="stop-color:#10b981;stop-opacity:0.8" />
    </linearGradient>
    <linearGradient id="neuralGradient" x1="0%" y1="0%" x2="100%" y2="100%">
      <stop offset="0%" style="stop-color:#8b5cf6;stop-opacity:0.6" />
      <stop offset="100%" style="stop-color:#ec4899;stop-opacity:0.4" />
    </linearGradient>
    <filter id="glow">
      <feGaussianBlur stdDeviation="3" result="coloredBlur"/>
      <feMerge> 
        <feMergeNode in="coloredBlur"/>
        <feMergeNode in="SourceGraphic"/>
      </feMerge>
    </filter>
  </defs>
  
  <!-- Background Circle -->
  <circle cx="200" cy="150" r="120" fill="url(#brainGradient)" opacity="0.1"/>
  
  <!-- Brain Structure -->
  <g filter="url(#glow)">
    <!-- Left Hemisphere -->
    <path d="M120 100 Q140 80 160 90 Q180 100 190 120 Q200 140 190 160 Q180 180 160 190 Q140 200 120 190 Q100 180 90 160 Q80 140 90 120 Q100 100 120 100 Z" 
          fill="url(#brainGradient)" stroke="#3b82f6" stroke-width="2"/>
    
    <!-- Right Hemisphere -->
    <path d="M280 100 Q260 80 240 90 Q220 100 210 120 Q200 140 210 160 Q220 180 240 190 Q260 200 280 190 Q300 180 310 160 Q320 140 310 120 Q300 100 280 100 Z" 
          fill="url(#brainGradient)" stroke="#3b82f6" stroke-width="2"/>
    
    <!-- Central Connection -->
    <path d="M190 120 Q200 110 210 120 Q200 130 190 120 Z" fill="#06b6d4"/>
    <path d="M190 160 Q200 170 210 160 Q200 150 190 160 Z" fill="#06b6d4"/>
  </g>
  
  <!-- Neural Network Nodes -->
  <g opacity="0.8">
    <!-- Left Hemisphere Nodes -->
    <circle cx="140" cy="110" r="4" fill="#8b5cf6">
      <animate attributeName="opacity" values="0.3;1;0.3" dur="2s" repeatCount="indefinite"/>
    </circle>
    <circle cx="160" cy="130" r="4" fill="#ec4899">
      <animate attributeName="opacity" values="0.3;1;0.3" dur="2.5s" repeatCount="indefinite"/>
    </circle>
    <circle cx="150" cy="150" r="4" fill="#8b5cf6">
      <animate attributeName="opacity" values="0.3;1;0.3" dur="1.8s" repeatCount="indefinite"/>
    </circle>
    <circle cx="170" cy="170" r="4" fill="#ec4899">
      <animate attributeName="opacity" values="0.3;1;0.3" dur="2.2s" repeatCount="indefinite"/>
    </circle>
    
    <!-- Right Hemisphere Nodes -->
    <circle cx="260" cy="110" r="4" fill="#8b5cf6">
      <animate attributeName="opacity" values="0.3;1;0.3" dur="2.3s" repeatCount="indefinite"/>
    </circle>
    <circle cx="240" cy="130" r="4" fill="#ec4899">
      <animate attributeName="opacity" values="0.3;1;0.3" dur="1.9s" repeatCount="indefinite"/>
    </circle>
    <circle cx="250" cy="150" r="4" fill="#8b5cf6">
      <animate attributeName="opacity" values="0.3;1;0.3" dur="2.1s" repeatCount="indefinite"/>
    </circle>
    <circle cx="230" cy="170" r="4" fill="#ec4899">
      <animate attributeName="opacity" values="0.3;1;0.3" dur="2.4s" repeatCount="indefinite"/>
    </circle>
    
    <!-- Central Nodes -->
    <circle cx="200" cy="120" r="3" fill="#06b6d4">
      <animate attributeName="opacity" values="0.5;1;0.5" dur="1.5s" repeatCount="indefinite"/>
    </circle>
    <circle cx="200" cy="160" r="3" fill="#06b6d4">
      <animate attributeName="opacity" values="0.5;1;0.5" dur="1.7s" repeatCount="indefinite"/>
    </circle>
  </g>
  
  <!-- Neural Connections -->
  <g opacity="0.4" stroke-width="1">
    <!-- Left Hemisphere Connections -->
    <line x1="144" y1="110" x2="164" y2="130" stroke="#8b5cf6"/>
    <line x1="164" y1="130" x2="154" y2="150" stroke="#ec4899"/>
    <line x1="154" y1="150" x2="174" y2="170" stroke="#8b5cf6"/>
    <line x1="144" y1="110" x2="154" y2="150" stroke="#ec4899"/>
    <line x1="164" y1="130" x2="174" y2="170" stroke="#8b5cf6"/>
    
    <!-- Right Hemisphere Connections -->
    <line x1="264" y1="110" x2="244" y2="130" stroke="#8b5cf6"/>
    <line x1="244" y1="130" x2="254" y2="150" stroke="#ec4899"/>
    <line x1="254" y1="150" x2="234" y2="170" stroke="#8b5cf6"/>
    <line x1="264" y1="110" x2="254" y2="150" stroke="#ec4899"/>
    <line x1="244" y1="130" x2="234" y2="170" stroke="#8b5cf6"/>
    
    <!-- Cross Hemisphere Connections -->
    <line x1="174" y1="130" x2="204" y2="120" stroke="#06b6d4"/>
    <line x1="174" y1="170" x2="204" y2="160" stroke="#06b6d4"/>
    <line x1="234" y1="130" x2="204" y2="120" stroke="#06b6d4"/>
    <line x1="234" y1="170" x2="204" y2="160" stroke="#06b6d4"/>
  </g>
  
  <!-- Data Flow Particles -->
  <g opacity="0.6">
    <circle cx="100" cy="100" r="2" fill="#10b981">
      <animate attributeName="cx" values="100;300" dur="4s" repeatCount="indefinite"/>
      <animate attributeName="cy" values="100;120;100" dur="4s" repeatCount="indefinite"/>
    </circle>
    <circle cx="300" cy="200" r="2" fill="#8b5cf6">
      <animate attributeName="cx" values="300;100" dur="5s" repeatCount="indefinite"/>
      <animate attributeName="cy" values="200;180;200" dur="5s" repeatCount="indefinite"/>
    </circle>
    <circle cx="150" cy="250" r="2" fill="#06b6d4">
      <animate attributeName="cx" values="150;250" dur="3.5s" repeatCount="indefinite"/>
      <animate attributeName="cy" values="250;230;250" dur="3.5s" repeatCount="indefinite"/>
    </circle>
  </g>
  
  <!-- AI Text -->
  <text x="200" y="280" text-anchor="middle" fill="#3b82f6" font-family="Arial, sans-serif" font-size="16" font-weight="bold">
    ARTIFICIAL INTELLIGENCE
  </text>
</svg> 