<svg width="1920" height="1080" xmlns="http://www.w3.org/2000/svg">
  <defs>
    <linearGradient id="bgGradient" x1="0%" y1="0%" x2="100%" y2="100%">
      <stop offset="0%" style="stop-color:#374151;stop-opacity:1" />
      <stop offset="50%" style="stop-color:#6b7280;stop-opacity:1" />
      <stop offset="100%" style="stop-color:#f59e0b;stop-opacity:1" />
    </linearGradient>
    <pattern id="grid" width="40" height="40" patternUnits="userSpaceOnUse">
      <path d="M 40 0 L 0 0 0 40" fill="none" stroke="#ffffff" stroke-width="0.5" opacity="0.1"/>
    </pattern>
    <linearGradient id="buildingGradient" x1="0%" y1="0%" x2="100%" y2="100%">
      <stop offset="0%" style="stop-color:#374151;stop-opacity:0.8" />
      <stop offset="100%" style="stop-color:#6b7280;stop-opacity:0.6" />
    </linearGradient>
  </defs>
  <rect width="100%" height="100%" fill="url(#bgGradient)"/>
  <rect width="100%" height="100%" fill="url(#grid)"/>
  
  <!-- Business buildings -->
  <rect x="100" y="400" width="80" height="300" fill="url(#buildingGradient)" opacity="0.7"/>
  <rect x="200" y="350" width="100" height="350" fill="url(#buildingGradient)" opacity="0.8"/>
  <rect x="320" y="450" width="90" height="250" fill="url(#buildingGradient)" opacity="0.6"/>
  <rect x="430" y="380" width="70" height="320" fill="url(#buildingGradient)" opacity="0.7"/>
  <rect x="520" y="420" width="85" height="280" fill="url(#buildingGradient)" opacity="0.6"/>
  
  <!-- Building windows -->
  <rect x="110" y="420" width="15" height="20" fill="#fbbf24" opacity="0.8"/>
  <rect x="135" y="420" width="15" height="20" fill="#fbbf24" opacity="0.8"/>
  <rect x="160" y="420" width="15" height="20" fill="#fbbf24" opacity="0.8"/>
  <rect x="110" y="460" width="15" height="20" fill="#fbbf24" opacity="0.8"/>
  <rect x="135" y="460" width="15" height="20" fill="#fbbf24" opacity="0.8"/>
  <rect x="160" y="460" width="15" height="20" fill="#fbbf24" opacity="0.8"/>
  
  <rect x="210" y="370" width="20" height="25" fill="#fbbf24" opacity="0.8"/>
  <rect x="240" y="370" width="20" height="25" fill="#fbbf24" opacity="0.8"/>
  <rect x="270" y="370" width="20" height="25" fill="#fbbf24" opacity="0.8"/>
  <rect x="210" y="410" width="20" height="25" fill="#fbbf24" opacity="0.8"/>
  <rect x="240" y="410" width="20" height="25" fill="#fbbf24" opacity="0.8"/>
  <rect x="270" y="410" width="20" height="25" fill="#fbbf24" opacity="0.8"/>
  
  <!-- Abstract business elements -->
  <circle cx="200" cy="200" r="80" fill="#fbbf24" opacity="0.1"/>
  <circle cx="1600" cy="300" r="120" fill="#fbbf24" opacity="0.08"/>
  <rect x="1400" y="600" width="200" height="200" fill="#fbbf24" opacity="0.06" transform="rotate(45 1500 700)"/>
  <polygon points="100,800 200,700 300,800" fill="#fbbf24" opacity="0.1"/>
  
  <!-- Business icons floating -->
  <circle cx="150" cy="150" r="25" fill="#fbbf24" opacity="0.3"/>
  <text x="150" y="155" font-family="Arial, sans-serif" font-size="20" fill="#ffffff" text-anchor="middle" font-weight="bold">$</text>
  
  <circle cx="1700" cy="200" r="20" fill="#fbbf24" opacity="0.4"/>
  <text x="1700" y="205" font-family="Arial, sans-serif" font-size="16" fill="#ffffff" text-anchor="middle" font-weight="bold">📈</text>
  
  <circle cx="300" cy="100" r="18" fill="#fbbf24" opacity="0.3"/>
  <text x="300" y="105" font-family="Arial, sans-serif" font-size="14" fill="#ffffff" text-anchor="middle" font-weight="bold">💼</text>
  
  <circle cx="1600" cy="500" r="22" fill="#fbbf24" opacity="0.35"/>
  <text x="1600" y="505" font-family="Arial, sans-serif" font-size="18" fill="#ffffff" text-anchor="middle" font-weight="bold">⚡</text>
  
  <!-- Connection lines -->
  <path d="M 150 150 Q 400 100 600 150" fill="none" stroke="#fbbf24" stroke-width="2" opacity="0.4"/>
  <path d="M 1700 200 Q 1500 250 1300 200" fill="none" stroke="#fbbf24" stroke-width="2" opacity="0.4"/>
  <path d="M 300 100 Q 500 80 700 120" fill="none" stroke="#fbbf24" stroke-width="2" opacity="0.4"/>
  
  <!-- Data flow elements -->
  <circle cx="400" cy="300" r="3" fill="#fbbf24" opacity="0.6"/>
  <circle cx="450" cy="280" r="3" fill="#fbbf24" opacity="0.6"/>
  <circle cx="500" cy="320" r="3" fill="#fbbf24" opacity="0.6"/>
  <circle cx="550" cy="290" r="3" fill="#fbbf24" opacity="0.6"/>
  <circle cx="600" cy="310" r="3" fill="#fbbf24" opacity="0.6"/>
  
  <!-- Business charts -->
  <rect x="1200" y="400" width="200" height="120" fill="#ffffff" opacity="0.1" rx="10"/>
  <rect x="1220" y="480" width="20" height="30" fill="#fbbf24" opacity="0.7"/>
  <rect x="1250" y="460" width="20" height="50" fill="#fbbf24" opacity="0.7"/>
  <rect x="1280" y="440" width="20" height="70" fill="#fbbf24" opacity="0.7"/>
  <rect x="1310" y="420" width="20" height="90" fill="#fbbf24" opacity="0.7"/>
  <rect x="1340" y="400" width="20" height="110" fill="#fbbf24" opacity="0.7"/>
  
  <!-- Network nodes -->
  <circle cx="800" cy="400" r="8" fill="#fbbf24" opacity="0.6"/>
  <circle cx="900" cy="350" r="8" fill="#fbbf24" opacity="0.6"/>
  <circle cx="1000" cy="420" r="8" fill="#fbbf24" opacity="0.6"/>
  <circle cx="1100" cy="380" r="8" fill="#fbbf24" opacity="0.6"/>
  
  <!-- Network connections -->
  <line x1="800" y1="400" x2="900" y2="350" stroke="#fbbf24" stroke-width="2" opacity="0.4"/>
  <line x1="900" y1="350" x2="1000" y2="420" stroke="#fbbf24" stroke-width="2" opacity="0.4"/>
  <line x1="1000" y1="420" x2="1100" y2="380" stroke="#fbbf24" stroke-width="2" opacity="0.4"/>
  <line x1="800" y1="400" x2="1000" y2="420" stroke="#fbbf24" stroke-width="2" opacity="0.4"/>
</svg> 